<svg xmlns="http://www.w3.org/2000/svg" width="20" height="20" viewBox="0 0 24 24">
  <defs>
    <clipPath id="clip">
      <circle cx="12" cy="12" r="10"/>
    </clipPath>
  </defs>
  <g clip-path="url(#clip)">
    <path d="M12 2a10 10 0 0 1 7.07 2.93l-3.01 3.01A6.5 6.5 0 0 0 12 5.5c-2.28 0-4.27 1.16-5.45 2.92L3.3 6.06A10 10 0 0 1 12 2z" fill="#EA4335"/>
    <path d="M22 12c0 .69-.07 1.35-.21 1.98H12v-4h9.79c.14.63.21 1.29.21 2.02z" fill="#4285F4"/>
    <path d="M12 22a10 10 0 0 0 6.86-2.6l-3.18-2.61A6.45 6.45 0 0 1 12 18.5c-2.52 0-4.66-1.43-5.68-3.51l-3.01 2.33A10 10 0 0 0 12 22z" fill="#34A853"/>
    <path d="M3.31 9.32A9.96 9.96 0 0 0 2 12c0 1.17.23 2.28.64 3.29l3.01-2.33A6.44 6.44 0 0 1 5.5 12c0-.74.13-1.45.37-2.11l-2.56-.57z" fill="#FBBC05"/>
  </g>
</svg>
